<svg xmlns="http://www.w3.org/2000/svg" width="13.03" height="11" viewBox="0 0 13.03 11">
  <defs>
    <style>
      .cls-1 {
        fill: #34404b;
        fill-rule: evenodd;
      }
    </style>
  </defs>
  <path id="twitter" class="cls-1" d="M1297.54,26.3a5.235,5.235,0,0,1-1.54.438,2.788,2.788,0,0,0,1.18-1.537,5.258,5.258,0,0,1-1.7.674,2.625,2.625,0,0,0-1.95-.877,2.722,2.722,0,0,0-2.67,2.778,3.282,3.282,0,0,0,.06.633,7.505,7.505,0,0,1-5.51-2.9,2.848,2.848,0,0,0-.36,1.4,2.8,2.8,0,0,0,1.19,2.312,2.578,2.578,0,0,1-1.21-.347V28.9a2.752,2.752,0,0,0,2.15,2.723,2.676,2.676,0,0,1-.71.1,2.523,2.523,0,0,1-.5-0.05,2.692,2.692,0,0,0,2.49,1.929,5.211,5.211,0,0,1-3.32,1.189,5.084,5.084,0,0,1-.63-0.039,7.359,7.359,0,0,0,4.1,1.248,7.715,7.715,0,0,0,7.6-7.9c0-.12,0-0.24-0.01-0.36A5.462,5.462,0,0,0,1297.54,26.3Z" transform="translate(-1284.5 -25)"/>
</svg>
